<?xml version="1.0" encoding="UTF-8"?>
<!-- Generator: Adobe Illustrator 18.1.1, SVG Export Plug-In . SVG Version: 6.00 Build 0)  -->
<!DOCTYPE svg PUBLIC "-//W3C//DTD SVG 1.1//EN" "http://www.w3.org/Graphics/SVG/1.1/DTD/svg11.dtd">
<svg version="1.1" id="Buttons" xmlns="http://www.w3.org/2000/svg" xmlns:xlink="http://www.w3.org/1999/xlink" x="0px" y="0px" viewBox="0 0 117 36.1" enable-background="new 0 0 117 36.1" xml:space="preserve">
<g>
	<path fill="#00A65D" d="M0,29.1V7c0-3.9,3.1-7,7-7h103c3.9,0,7,3.1,7,7v22.1c0,3.9-3.1,7-7,7H7C3.1,36.1,0,32.9,0,29.1z"/>
	<path fill="#00D178" d="M110.1,35.1H6.9c-3.3,0-6-2.7-6-6V6.9c0-3.3,2.7-6,6-6h103.2c3.3,0,6,2.7,6,6v22.2   C116.1,32.4,113.4,35.1,110.1,35.1z"/>
	<g>
		<defs>
			<path id="SVGID_1_" d="M110.1,35.1H6.9c-3.3,0-6-2.7-6-6V6.9c0-3.3,2.7-6,6-6h103.2c3.3,0,6,2.7,6,6v22.2     C116.1,32.4,113.4,35.1,110.1,35.1z"/>
		</defs>
		<clipPath id="SVGID_2_">
			<use xlink:href="#SVGID_1_" overflow="visible"/>
		</clipPath>
		<path clip-path="url(#SVGID_2_)" fill="#00A65D" d="M126.2,40.1l-20.4-16.7c1.4-1.7,2.5-3.4,2.3-5.1c-0.1-1-0.6-1.9-1.5-2.6    c-0.3-2.2-1.5-3.7-2.1-4.3c-0.2-2.8-0.5-3.4-1.6-4.5c-0.9-0.9-2.5-1-4.1-0.9c-1.4-2.5-5.9-2.7-8.6-2.6c-1.8,0.1-4,2.4-5.3,4    l-0.1,0c-0.4-0.2-0.9-0.2-1.4-0.2c-1.3,0-2.4,0.7-2.8,1.8c-0.3,0.8-0.1,1.7,0.4,2.5c-0.8,0.2-1.6,0.7-1.8,1.5    c-0.2,0.7-0.2,1.4,0.2,2.1c0,0,0,0.1,0.1,0.1c-0.7,0.2-1.3,0.7-1.6,1.4c-0.5,1.2,0.3,2.7,1.7,3.3c-0.4,0.3-0.7,0.6-0.9,1.1    C78.2,22,78.8,23.3,80,24L63.4,38.3c-0.4,0.3-0.4,0.9-0.1,1.3c0.2,0.2,0.4,0.3,0.7,0.3c0.2,0,0.4-0.1,0.6-0.2l17.4-15.1    c0.1,0,0.1,0,0.2,0c1.1,0,2.1-0.6,2.4-1.6c0.1-0.3,0.1-0.5,0.1-0.8l0.5-0.5c0.1,0,0.3,0,0.4,0c1.1,0,2.1-0.6,2.5-1.5    c0.1-0.4,0.2-0.8,0.1-1.1c0-0.1,0.1-0.1,0.1-0.2c0.1,0,0.3,0,0.4,0c1.2,0,2.2-0.6,2.5-1.6c0.2-0.7,0.2-1.4-0.2-2.1    c-0.1-0.2-0.2-0.3-0.3-0.4c0.8-0.3,1.4-0.8,1.7-1.6c0.2-0.5,0.2-1,0-1.5l1.5,0l0.1,0c1.5,0,2.8-1.1,2.8-2.5c0-0.4-0.1-0.7-0.2-1.1    c1.9-0.4,4.2-0.6,4.8,0.1c0.7,0.7,0.9,0.8,1.1,3.7l0,0.4l0.3,0.2c0,0,1.7,1.4,1.8,3.7l0,0.5l0.4,0.3c0.7,0.4,1,0.9,1.1,1.5    c0.2,1.7-2.1,4.1-4,6c-2.8,2.8-6.9,3.8-12.2,4.6l-0.3,0L74.9,45.4c-0.3,0.4-0.3,0.9,0.1,1.3c0.2,0.2,0.4,0.2,0.6,0.2    c0.2,0,0.5-0.1,0.7-0.3l14.4-15.8c2.1-0.3,4-0.7,5.7-1.2l16.3,20.2c0.2,0.2,0.4,0.3,0.7,0.3c0.2,0,0.4-0.1,0.6-0.2    c0.4-0.3,0.4-0.9,0.1-1.2L98.1,29.1c2.1-0.8,3.8-1.8,5.4-3.3c0.4-0.4,0.7-0.7,1.1-1.1L125,41.5c0.2,0.1,0.4,0.2,0.6,0.2    c0.3,0,0.5-0.1,0.7-0.3C126.6,41,126.5,40.4,126.2,40.1z M90.9,12.8c-0.2,0.6-1.2,0.8-2,0.5l-5.6-2.1c-0.9-0.3-1.4-1.1-1.2-1.7    c0.1-0.4,0.6-0.7,1.2-0.7c0.3,0,0.5,0,0.8,0.1l2.9,1.1c0.4,1,1.4,1.7,2.6,1.7l1.1,0C90.9,12.1,91,12.5,90.9,12.8z M89.9,16.9    c-0.2,0.5-1,0.7-1.7,0.4l-6.6-2.5c-0.4-0.1-0.7-0.4-0.9-0.7c-0.1-0.1-0.2-0.4-0.1-0.7c0.1-0.3,0.5-0.5,1-0.5c0.2,0,0.4,0,0.7,0.1    l6.6,2.5c0.4,0.1,0.7,0.4,0.9,0.7C89.8,16.3,90,16.6,89.9,16.9z M81,22.6c-0.6-0.2-0.9-0.7-0.7-1.2c0.1-0.3,0.5-0.5,0.9-0.5    c0.2,0,0.3,0,0.5,0.1l0.9,0.3c0.3,0.1,0.5,0.3,0.7,0.6c0.1,0.1,0.2,0.4,0.1,0.6c-0.2,0.4-0.8,0.6-1.3,0.4L81,22.6z M85.1,20.3    l-4.9-1.8c-0.7-0.3-1.2-1-1-1.5c0.1-0.4,0.6-0.6,1.1-0.6c0.2,0,0.5,0,0.7,0.1l4.9,1.8c0.7,0.3,1.2,1,1,1.5    C86.7,20.3,85.9,20.5,85.1,20.3z M96.8,6.4C96,6.5,95.4,6.7,95,6.8c-0.3-0.1-0.5-0.1-0.8-0.1l-4.5-0.1c-1.2,0-2.2,0.7-2.6,1.7    l-0.5-0.2c1.3-1.5,2.8-2.9,3.7-2.9C92.7,5.1,95.5,5.4,96.8,6.4z M94.1,11l0.1-0.8l-4.6-0.1c-0.7,0-1.2-0.5-1.2-1    c0-0.5,0.6-1,1.2-1h0l4.5,0.1c0.7,0,1.2,0.5,1.2,1c0,0.5-0.6,1-1.2,1V11L94.1,11L94.1,11z"/>
		<path clip-path="url(#SVGID_2_)" fill="#FFFFFF" d="M127,41l-20.4-16.7c1.4-1.7,2.5-3.4,2.3-5.1c-0.1-1-0.6-1.9-1.5-2.6    c-0.3-2.2-1.5-3.7-2.1-4.3c-0.2-2.8-0.5-3.4-1.6-4.5c-0.9-0.9-2.5-1-4.1-0.9c-1.4-2.5-5.9-2.7-8.6-2.6c-1.8,0.1-4,2.4-5.3,4    l-0.1,0C85.1,8.1,84.7,8,84.2,8c-1.3,0-2.4,0.7-2.8,1.8c-0.3,0.8-0.1,1.7,0.4,2.5c-0.8,0.2-1.6,0.7-1.8,1.5    c-0.2,0.7-0.2,1.4,0.2,2.1c0,0,0,0.1,0.1,0.1c-0.7,0.2-1.3,0.7-1.6,1.4c-0.5,1.2,0.3,2.7,1.7,3.3c-0.4,0.3-0.7,0.6-0.9,1.1    c-0.4,1.2,0.2,2.5,1.3,3.1L64.3,39.2c-0.4,0.3-0.4,0.9-0.1,1.3c0.2,0.2,0.4,0.3,0.7,0.3c0.2,0,0.4-0.1,0.6-0.2L83,25.5    c0.1,0,0.1,0,0.2,0c1.1,0,2.1-0.6,2.4-1.6c0.1-0.3,0.1-0.5,0.1-0.8l0.5-0.5c0.1,0,0.3,0,0.4,0c1.1,0,2.1-0.6,2.5-1.5    c0.1-0.4,0.2-0.8,0.1-1.1c0-0.1,0.1-0.1,0.1-0.2c0.1,0,0.3,0,0.4,0c1.2,0,2.2-0.6,2.5-1.6c0.2-0.7,0.2-1.4-0.2-2.1    c-0.1-0.2-0.2-0.3-0.3-0.4c0.8-0.3,1.4-0.8,1.7-1.6c0.2-0.5,0.2-1,0-1.5l1.5,0l0.1,0c1.5,0,2.8-1.1,2.8-2.5c0-0.4-0.1-0.7-0.2-1.1    c1.9-0.4,4.2-0.6,4.8,0.1c0.7,0.7,0.9,0.8,1.1,3.7l0,0.4l0.3,0.2c0,0,1.7,1.4,1.8,3.7l0,0.5l0.4,0.3c0.7,0.4,1,0.9,1.1,1.5    c0.2,1.7-2.1,4.1-4,6c-2.8,2.8-6.9,3.8-12.2,4.6l-0.3,0L75.8,46.3c-0.3,0.4-0.3,0.9,0.1,1.3c0.2,0.2,0.4,0.2,0.6,0.2    c0.2,0,0.5-0.1,0.7-0.3l14.4-15.8c2.1-0.3,4-0.7,5.7-1.2l16.3,20.2c0.2,0.2,0.4,0.3,0.7,0.3c0.2,0,0.4-0.1,0.6-0.2    c0.4-0.3,0.4-0.9,0.1-1.2L99,30c2.1-0.8,3.8-1.8,5.4-3.3c0.4-0.4,0.7-0.7,1.1-1.1l20.5,16.7c0.2,0.1,0.4,0.2,0.6,0.2    c0.3,0,0.5-0.1,0.7-0.3C127.5,41.8,127.4,41.3,127,41z M91.8,13.6c-0.2,0.6-1.2,0.8-2,0.5l-5.6-2.1c-0.9-0.3-1.4-1.1-1.2-1.7    c0.1-0.4,0.6-0.7,1.2-0.7c0.3,0,0.5,0,0.8,0.1l2.9,1.1c0.4,1,1.4,1.7,2.6,1.7l1.1,0C91.8,13,91.9,13.3,91.8,13.6z M90.7,17.8    c-0.2,0.5-1,0.7-1.7,0.4l-6.6-2.5c-0.4-0.1-0.7-0.4-0.9-0.7c-0.1-0.1-0.2-0.4-0.1-0.7c0.1-0.3,0.5-0.5,1-0.5c0.2,0,0.4,0,0.7,0.1    l6.6,2.5c0.4,0.1,0.7,0.4,0.9,0.7C90.7,17.2,90.8,17.5,90.7,17.8z M81.9,23.5c-0.6-0.2-0.9-0.7-0.7-1.2c0.1-0.3,0.5-0.5,0.9-0.5    c0.2,0,0.3,0,0.5,0.1l0.9,0.3c0.3,0.1,0.5,0.3,0.7,0.6c0.1,0.1,0.2,0.4,0.1,0.6c-0.2,0.4-0.8,0.6-1.3,0.4L81.9,23.5z M86,21.1    l-4.9-1.8c-0.7-0.3-1.2-1-1-1.5c0.1-0.4,0.6-0.6,1.1-0.6c0.2,0,0.5,0,0.7,0.1l4.9,1.8c0.7,0.3,1.2,1,1,1.5    C87.6,21.2,86.7,21.4,86,21.1z M97.6,7.2c-0.7,0.1-1.3,0.3-1.8,0.4c-0.3-0.1-0.5-0.1-0.8-0.1l-4.5-0.1c-1.2,0-2.2,0.7-2.6,1.7    l-0.5-0.2C88.6,7.4,90.2,6,91.1,6C93.6,5.9,96.4,6.2,97.6,7.2z M95,11.9l0.1-0.8L90.5,11c-0.7,0-1.2-0.5-1.2-1c0-0.5,0.6-1,1.2-1    h0L95,9.1c0.7,0,1.2,0.5,1.2,1c0,0.5-0.6,1-1.2,1V11.9L95,11.9L95,11.9z"/>
	</g>
	<g>
		<g>
			<path fill="#00A65D" d="M19.6,15.7L19.6,15.7l0.5,0l0.4-2.2H20l0,0h-3.2l0.2-1.2c0.1-0.7,0.3-1.2,0.6-1.4     c0.3-0.3,0.7-0.4,1.1-0.4s0.9,0.1,1.1,0.3c0.2,0.2,0.5,0.5,0.6,0.8c0.5-0.1,0.8-0.4,1.1-0.6c0.2-0.3,0.4-0.6,0.4-0.9     c0-0.4-0.2-0.8-0.5-1.1c-0.3-0.2-0.6-0.4-1.1-0.6c-0.4-0.1-1-0.2-1.6-0.2c-1.3,0-2.4,0.3-3.2,1c-0.8,0.7-1.3,1.8-1.6,3.4     l-0.1,0.8h-1.8l-0.4,2.2h1.8l-0.2,1.4h-1.8l-0.4,2.2H13l-0.8,4.7c-0.1,0.7-0.3,1.2-0.6,1.5c-0.3,0.4-0.6,0.5-1.1,0.5     c-0.4,0-0.7-0.1-0.9-0.2c-0.3-0.2-0.5-0.4-0.7-0.7c-0.3,0.2-0.6,0.4-0.8,0.7c-0.2,0.3-0.3,0.5-0.3,0.8c0,0.3,0.1,0.6,0.3,0.8     c0.2,0.2,0.4,0.4,0.7,0.5c0.3,0.1,0.6,0.2,0.9,0.3c0.3,0.1,0.6,0.1,0.9,0.1c1.3,0,2.3-0.4,3-1.2c0.7-0.8,1.1-1.8,1.4-3.2l0.8-4.7     h3.6l0.4-2.2h-3.6l0.2-1.4H19.6z"/>
			<path fill="#00A65D" d="M30.2,14.3c-0.6-0.4-1.3-0.7-2-0.8c-0.7-0.2-1.3-0.3-1.9-0.3c-0.9,0-1.7,0.2-2.5,0.6     c-0.7,0.4-1.4,0.9-1.9,1.6c-0.5,0.7-0.9,1.4-1.2,2.2c-0.3,0.8-0.4,1.7-0.4,2.6c0,0.6,0,1.1,0.1,1.6c0.1,0.5,0.3,0.9,0.5,1.2     c0.2,0.3,0.5,0.6,0.9,0.8c0.4,0.2,0.9,0.3,1.5,0.3c0.6,0,1.2-0.1,1.6-0.4c0.5-0.3,0.9-0.6,1.2-1.1c0,0.5,0.2,0.9,0.5,1.1     c0.3,0.2,0.6,0.3,1.1,0.3c0.3,0,0.6,0,0.8-0.1c0.3-0.1,0.5-0.2,0.8-0.3c-0.1-0.2-0.2-0.5-0.2-0.9c-0.1-0.3-0.1-0.7-0.1-1     c0-0.3,0-0.5,0.1-0.7L30.2,14.3z M26.3,19.7c0,0.3-0.1,0.6-0.2,0.9c-0.1,0.3-0.3,0.5-0.4,0.7c-0.2,0.2-0.4,0.4-0.6,0.5     c-0.2,0.1-0.5,0.2-0.7,0.2c-0.8,0-1.2-0.6-1.2-1.7c0-0.7,0.1-1.4,0.3-2c0.2-0.6,0.4-1.1,0.7-1.5c0.3-0.4,0.6-0.7,0.9-1     c0.3-0.2,0.7-0.3,1.1-0.3c0.3,0,0.6,0.1,0.9,0.3L26.3,19.7z"/>
			<path fill="#00A65D" d="M39.7,13.6c-0.4-0.3-0.9-0.4-1.6-0.4c-0.7,0-1.3,0.1-1.8,0.4c-0.5,0.3-0.9,0.6-1.2,1     c-0.1-0.4-0.3-0.7-0.6-0.9c-0.2-0.2-0.6-0.3-1-0.3c-0.4,0-0.8,0-1.1,0.1l-1.7,10.3h2.9l1-6.2c0.1-0.6,0.3-1.1,0.7-1.5     c0.3-0.4,0.8-0.6,1.2-0.6c0.5,0,0.8,0.1,0.9,0.3c0.2,0.2,0.2,0.5,0.2,0.9c0,0.1,0,0.3,0,0.4c0,0.1,0,0.3-0.1,0.5l-1,6.2h2.9     l1-6.2c0-0.2,0.1-0.5,0.1-0.8c0-0.3,0-0.5,0-0.8c0-0.5-0.1-1-0.2-1.4C40.4,14.3,40.1,13.9,39.7,13.6z"/>
			<path fill="#00A65D" d="M53.8,13.4H51l0.2-1.3c0-0.1,0-0.2,0-0.3c0-0.1,0-0.2,0-0.3c0-0.4-0.1-0.8-0.4-1.1     c-0.3-0.3-0.7-0.4-1.3-0.4c-0.1,0-0.3,0-0.5,0c-0.2,0-0.3,0-0.5,0.1l-0.3,1.6l0,0c0,0.1,0,0.1,0,0.2l-0.1,0.6     c-0.2,0.8-0.4,0.8-1,0.8c0,0,0,0,0,0H47l-0.4,2.2h1l-0.7,4.1c0,0.2-0.1,0.4-0.1,0.6c0,0.2,0,0.4,0,0.5c0,1,0.3,1.8,0.8,2.4     c0.5,0.6,1.4,0.9,2.4,0.9c0.5,0,1-0.1,1.4-0.2c0.4-0.1,0.8-0.3,1.2-0.6c0.3-0.2,0.5-0.4,0.6-0.6c0.1-0.2,0.2-0.4,0.2-0.7     c0-0.2-0.1-0.5-0.2-0.7c-0.2-0.2-0.4-0.4-0.8-0.6c-0.2,0.3-0.4,0.5-0.7,0.7c-0.2,0.2-0.5,0.3-0.9,0.3c-0.7,0-1-0.4-1-1.1     c0-0.1,0-0.2,0-0.4c0-0.1,0-0.3,0.1-0.4l0.7-4.3h2.8l0,0H54l0.4-2.2L53.8,13.4L53.8,13.4z"/>
			<path fill="#00A65D" d="M57.6,11.7c0.5,0,0.9-0.2,1.2-0.5c0.3-0.3,0.5-0.8,0.5-1.3c0-0.4-0.1-0.8-0.4-1.1     c-0.2-0.3-0.6-0.4-1.1-0.4c-0.5,0-0.9,0.2-1.2,0.5c-0.3,0.3-0.5,0.8-0.5,1.4c0,0.4,0.1,0.7,0.4,1C56.8,11.5,57.2,11.7,57.6,11.7z     "/>
			<path fill="#00A65D" d="M57.4,22.2c0-0.2,0-0.3,0-0.5c0-0.2,0-0.3,0.1-0.5l1-5.8c0-0.1,0-0.2,0-0.3c0-0.1,0-0.2,0-0.3     c0-0.4-0.1-0.8-0.4-1.1c-0.3-0.3-0.7-0.4-1.3-0.4c-0.1,0-0.3,0-0.5,0c-0.2,0-0.4,0-0.5,0.1L54.4,22c0,0.1,0,0.2,0,0.3     c0,0.1,0,0.2,0,0.2c0,0.6,0.1,1.1,0.4,1.3c0.3,0.2,0.7,0.3,1.3,0.3c0.3,0,0.5,0,0.8-0.1c0.2-0.1,0.5-0.2,0.7-0.3     c-0.1-0.2-0.1-0.4-0.2-0.7C57.4,22.7,57.4,22.5,57.4,22.2z"/>
			<path fill="#00A65D" d="M69.4,17.4c0-0.6-0.1-1.1-0.2-1.6c-0.1-0.5-0.3-0.9-0.5-1.3c-0.2-0.4-0.6-0.7-1-0.9     c-0.4-0.2-0.9-0.3-1.5-0.3c-0.7,0-1.2,0.1-1.7,0.4c-0.5,0.3-0.9,0.6-1.1,0.9c-0.2-0.5-0.4-0.8-0.7-0.9c-0.3-0.1-0.6-0.2-0.9-0.2     c-0.1,0-0.3,0-0.5,0c-0.2,0-0.4,0-0.5,0.1l-2.5,15.1h2.9l0.8-5.1c0.2,0.2,0.5,0.3,0.9,0.4c0.3,0.1,0.7,0.2,1.2,0.2     c0.8,0,1.5-0.2,2.2-0.6c0.7-0.4,1.2-0.9,1.7-1.5c0.5-0.6,0.8-1.3,1.1-2.2C69.3,19.1,69.4,18.3,69.4,17.4z M66.1,19.3     c-0.2,0.6-0.4,1.1-0.6,1.5c-0.3,0.4-0.6,0.7-0.9,0.9c-0.3,0.2-0.7,0.3-1.1,0.3c-0.3,0-0.6,0-0.7-0.1c-0.2,0-0.3-0.1-0.5-0.2     l0.7-4.3c0-0.2,0.1-0.5,0.2-0.7c0.1-0.2,0.3-0.5,0.4-0.7c0.2-0.2,0.4-0.4,0.6-0.5c0.2-0.1,0.4-0.2,0.7-0.2c0.4,0,0.7,0.2,1,0.5     c0.3,0.3,0.4,0.8,0.4,1.4C66.4,18.1,66.3,18.8,66.1,19.3z"/>
		</g>
		<g>
			<path fill="#FFFFFF" d="M20.3,16.4L20.3,16.4l0.5,0l0.4-2.2h-0.5l0,0h-3.2l0.2-1.2c0.1-0.7,0.3-1.2,0.6-1.4     c0.3-0.3,0.7-0.4,1.1-0.4s0.9,0.1,1.1,0.3c0.2,0.2,0.5,0.5,0.6,0.8c0.5-0.1,0.8-0.4,1.1-0.6c0.2-0.3,0.4-0.6,0.4-0.9     c0-0.4-0.2-0.8-0.5-1.1c-0.3-0.2-0.6-0.4-1.1-0.6c-0.4-0.1-1-0.2-1.6-0.2c-1.3,0-2.4,0.3-3.2,1c-0.8,0.7-1.3,1.8-1.6,3.4     l-0.1,0.8h-1.8l-0.4,2.2h1.8L14,17.8h-1.8L11.8,20h1.8l-0.8,4.7c-0.1,0.7-0.3,1.2-0.6,1.5c-0.3,0.4-0.6,0.5-1.1,0.5     c-0.4,0-0.7-0.1-0.9-0.2c-0.3-0.2-0.5-0.4-0.7-0.7c-0.3,0.2-0.6,0.4-0.8,0.7c-0.2,0.3-0.3,0.5-0.3,0.8c0,0.3,0.1,0.6,0.3,0.8     c0.2,0.2,0.4,0.4,0.7,0.5c0.3,0.1,0.6,0.2,0.9,0.3c0.3,0.1,0.6,0.1,0.9,0.1c1.3,0,2.3-0.4,3-1.2c0.7-0.8,1.1-1.8,1.4-3.2l0.8-4.7     h3.6l0.4-2.2h-3.6l0.2-1.4H20.3z"/>
			<path fill="#FFFFFF" d="M30.9,15c-0.6-0.4-1.3-0.7-2-0.8c-0.7-0.2-1.3-0.3-1.9-0.3c-0.9,0-1.7,0.2-2.5,0.6     c-0.7,0.4-1.4,0.9-1.9,1.6c-0.5,0.7-0.9,1.4-1.2,2.2c-0.3,0.8-0.4,1.7-0.4,2.6c0,0.6,0,1.1,0.1,1.6c0.1,0.5,0.3,0.9,0.5,1.2     c0.2,0.3,0.5,0.6,0.9,0.8c0.4,0.2,0.9,0.3,1.5,0.3c0.6,0,1.2-0.1,1.6-0.4c0.5-0.3,0.9-0.6,1.2-1.1c0,0.5,0.2,0.9,0.5,1.1     c0.3,0.2,0.6,0.3,1.1,0.3c0.3,0,0.6,0,0.8-0.1c0.3-0.1,0.5-0.2,0.8-0.3c-0.1-0.2-0.2-0.5-0.2-0.9c-0.1-0.3-0.1-0.7-0.1-1     c0-0.3,0-0.5,0.1-0.7L30.9,15z M27,20.4c0,0.3-0.1,0.6-0.2,0.9c-0.1,0.3-0.3,0.5-0.4,0.7c-0.2,0.2-0.4,0.4-0.6,0.5     c-0.2,0.1-0.5,0.2-0.7,0.2c-0.8,0-1.2-0.6-1.2-1.7c0-0.7,0.1-1.4,0.3-2c0.2-0.6,0.4-1.1,0.7-1.5c0.3-0.4,0.6-0.7,0.9-1     c0.3-0.2,0.7-0.3,1.1-0.3c0.3,0,0.6,0.1,0.9,0.3L27,20.4z"/>
			<path fill="#FFFFFF" d="M40.3,14.3c-0.4-0.3-0.9-0.4-1.6-0.4c-0.7,0-1.3,0.1-1.8,0.4c-0.5,0.3-0.9,0.6-1.2,1     c-0.1-0.4-0.3-0.7-0.6-0.9c-0.2-0.2-0.6-0.3-1-0.3c-0.4,0-0.8,0-1.1,0.1l-1.7,10.3h2.9l1-6.2c0.1-0.6,0.3-1.1,0.7-1.5     c0.3-0.4,0.8-0.6,1.2-0.6c0.5,0,0.8,0.1,0.9,0.3c0.2,0.2,0.2,0.5,0.2,0.9c0,0.1,0,0.3,0,0.4c0,0.1,0,0.3-0.1,0.5l-1,6.2h2.9     l1-6.2c0-0.2,0.1-0.5,0.1-0.8c0-0.3,0-0.5,0-0.8c0-0.5-0.1-1-0.2-1.4C41,15,40.8,14.6,40.3,14.3z"/>
			<path fill="#FFFFFF" d="M54.4,14.1h-2.8l0.2-1.3c0-0.1,0-0.2,0-0.3c0-0.1,0-0.2,0-0.3c0-0.4-0.1-0.8-0.4-1.1     c-0.3-0.3-0.7-0.4-1.3-0.4c-0.1,0-0.3,0-0.5,0c-0.2,0-0.3,0-0.5,0.1l-0.3,1.6l0,0c0,0.1,0,0.1,0,0.2l-0.1,0.6     c-0.2,0.8-0.4,0.8-1,0.8c0,0,0,0,0,0h-0.2l-0.4,2.2h1l-0.7,4.1c0,0.2-0.1,0.4-0.1,0.6c0,0.2,0,0.4,0,0.5c0,1,0.3,1.8,0.8,2.4     c0.5,0.6,1.4,0.9,2.4,0.9c0.5,0,1-0.1,1.4-0.2c0.4-0.1,0.8-0.3,1.2-0.6c0.3-0.2,0.5-0.4,0.6-0.6c0.1-0.2,0.2-0.4,0.2-0.7     c0-0.2-0.1-0.5-0.2-0.7c-0.2-0.2-0.4-0.4-0.8-0.6c-0.2,0.3-0.4,0.5-0.7,0.7c-0.2,0.2-0.5,0.3-0.9,0.3c-0.7,0-1-0.4-1-1.1     c0-0.1,0-0.2,0-0.4c0-0.1,0-0.3,0.1-0.4l0.7-4.3h2.8l0,0h0.6l0.4-2.2L54.4,14.1L54.4,14.1z"/>
			<path fill="#FFFFFF" d="M58.3,12.4c0.5,0,0.9-0.2,1.2-0.5c0.3-0.3,0.5-0.8,0.5-1.3c0-0.4-0.1-0.8-0.4-1.1C59.5,9.2,59.1,9,58.7,9     c-0.5,0-0.9,0.2-1.2,0.5c-0.3,0.3-0.5,0.8-0.5,1.4c0,0.4,0.1,0.7,0.4,1C57.5,12.2,57.9,12.4,58.3,12.4z"/>
			<path fill="#FFFFFF" d="M58.1,22.9c0-0.2,0-0.3,0-0.5c0-0.2,0-0.3,0.1-0.5l1-5.8c0-0.1,0-0.2,0-0.3c0-0.1,0-0.2,0-0.3     c0-0.4-0.1-0.8-0.4-1.1c-0.3-0.3-0.7-0.4-1.3-0.4c-0.1,0-0.3,0-0.5,0c-0.2,0-0.4,0-0.5,0.1l-1.4,8.5c0,0.1,0,0.2,0,0.3     c0,0.1,0,0.2,0,0.2c0,0.6,0.1,1.1,0.4,1.3c0.3,0.2,0.7,0.3,1.3,0.3c0.3,0,0.5,0,0.8-0.1c0.2-0.1,0.5-0.2,0.7-0.3     c-0.1-0.2-0.1-0.4-0.2-0.7C58.1,23.4,58.1,23.2,58.1,22.9z"/>
			<path fill="#FFFFFF" d="M70.1,18c0-0.6-0.1-1.1-0.2-1.6c-0.1-0.5-0.3-0.9-0.5-1.3c-0.2-0.4-0.6-0.7-1-0.9     c-0.4-0.2-0.9-0.3-1.5-0.3c-0.7,0-1.2,0.1-1.7,0.4c-0.5,0.3-0.9,0.6-1.1,0.9c-0.2-0.5-0.4-0.8-0.7-0.9c-0.3-0.1-0.6-0.2-0.9-0.2     c-0.1,0-0.3,0-0.5,0c-0.2,0-0.4,0-0.5,0.1L59,29.3h2.9l0.8-5.1c0.2,0.2,0.5,0.3,0.9,0.4c0.3,0.1,0.7,0.2,1.2,0.2     c0.8,0,1.5-0.2,2.2-0.6c0.7-0.4,1.2-0.9,1.7-1.5c0.5-0.6,0.8-1.3,1.1-2.2C70,19.8,70.1,19,70.1,18z M66.8,20     c-0.2,0.6-0.4,1.1-0.6,1.5c-0.3,0.4-0.6,0.7-0.9,0.9c-0.3,0.2-0.7,0.3-1.1,0.3c-0.3,0-0.6,0-0.7-0.1c-0.2,0-0.3-0.1-0.5-0.2     l0.7-4.3c0-0.2,0.1-0.5,0.2-0.7c0.1-0.2,0.3-0.5,0.4-0.7c0.2-0.2,0.4-0.4,0.6-0.5c0.2-0.1,0.4-0.2,0.7-0.2c0.4,0,0.7,0.2,1,0.5     c0.3,0.3,0.4,0.8,0.4,1.4C67.1,18.8,67,19.4,66.8,20z"/>
		</g>
	</g>
</g>
</svg>